<svg width="48" height="48" viewBox="0 0 48 48" fill="none" xmlns="http://www.w3.org/2000/svg">
<g id="akar-icons:whatsapp-fill" clip-path="url(#clip0_39_192)">
<g id="Group">
<g id="Clip path group">
<mask id="mask0_39_192" style="mask-type:luminance" maskUnits="userSpaceOnUse" x="0" y="0" width="48" height="48">
<g id="akarIconsWhatsappFill0">
<path id="Vector" d="M0 0H48V48H0V0Z" fill="white"/>
</g>
</mask>
<g mask="url(#mask0_39_192)">
<g id="Group_2">
<path id="Vector_2" fill-rule="evenodd" clip-rule="evenodd" d="M34.83 28.7641C34.234 28.4661 31.312 27.0301 30.768 26.8301C30.224 26.6321 29.828 26.5341 29.43 27.1301C29.034 27.7221 27.896 29.0621 27.55 29.4581C27.202 29.8561 26.856 29.9041 26.262 29.6081C25.668 29.3081 23.752 28.6821 21.482 26.6581C19.716 25.0821 18.522 23.1361 18.176 22.5401C17.83 21.9461 18.138 21.6241 18.436 21.3281C18.704 21.0621 19.03 20.6341 19.328 20.2881C19.626 19.9401 19.724 19.6921 19.922 19.2941C20.122 18.8981 20.022 18.5521 19.872 18.2541C19.724 17.9561 18.536 15.0301 18.04 13.8401C17.558 12.6821 17.068 12.8401 16.704 12.8201C16.356 12.8041 15.96 12.8001 15.564 12.8001C15.168 12.8001 14.524 12.9481 13.98 13.5441C13.434 14.1381 11.9 15.5761 11.9 18.5021C11.9 21.4261 14.028 24.2521 14.326 24.6501C14.624 25.0461 18.516 31.0501 24.478 33.6241C25.898 34.2361 27.004 34.6021 27.866 34.8741C29.29 35.3281 30.586 35.2641 31.61 35.1101C32.75 34.9401 35.126 33.6721 35.622 32.2841C36.116 30.8961 36.116 29.7061 35.968 29.4581C35.82 29.2101 35.424 29.0621 34.828 28.7641H34.83ZM23.986 43.5701H23.978C20.4369 43.5707 16.9607 42.6188 13.914 40.8141L13.194 40.3861L5.71 42.3501L7.708 35.0541L7.238 34.3061C5.25828 31.1548 4.21059 27.5076 4.216 23.7861C4.22 12.8861 13.088 4.01808 23.994 4.01808C29.274 4.01808 34.238 6.07808 37.97 9.81408C39.8108 11.6472 41.2697 13.8272 42.2626 16.2279C43.2554 18.6285 43.7623 21.2022 43.754 23.8001C43.75 34.7001 34.882 43.5701 23.986 43.5701ZM40.81 6.97608C38.6064 4.75793 35.9845 2.99916 33.0962 1.80168C30.2079 0.60421 27.1107 -0.00815249 23.984 8.19551e-05C10.876 8.19551e-05 0.204 10.6701 0.2 23.7841C0.193926 27.9576 1.28875 32.0589 3.374 35.6741L0 48.0001L12.608 44.6921C16.0957 46.5923 20.0042 47.588 23.976 47.5881H23.986C37.094 47.5881 47.766 36.9181 47.77 23.8021C47.7797 20.6766 47.1695 17.5803 45.9749 14.6921C44.7802 11.804 43.0247 9.18142 40.81 6.97608Z" fill="#FFDB58"/>
</g>
</g>
</g>
</g>
</g>
<defs>
<clipPath id="clip0_39_192">
<rect width="48" height="48" fill="white"/>
</clipPath>
</defs>
</svg>
